# xmcd
#
# Track frame offsets: 
#        150
#        11352
#        23642
#        35675
#        49217
#        61892
#        71180
#        83090
#        94950
#        105965
#        118810
#        129247
#        141817
#        154227
#
# Disc length: 2205 seconds
#
# Revision: 0
# Processed by: cddbd v1.4PL0 Copyright (c) Steve Scherf et al.
# Submitted via: ExactAudioCopy v0.95a2
#
DISCID=b6089b0e
DTITLE=Stonewall Jackson - Classic Country
DYEAR=1998
DGENRE=country
TTITLE0=Waterloo
TTITLE1=I Washed My Hands in Dirty Water
TTITLE2=A Wound Time Can't Erase
TTITLE3=Don't Be Angry
TTITLE4=BJ the DJ
TTITLE5=Can't Hang Up the Phone
TTITLE6=Stamp Out Loneliness
TTITLE7=Me and You and a Dog Named Boo
TTITLE8=Mary Don't You Weep
TTITLE9=Old Showboat
TTITLE10=Why I'm Walkin'
TTITLE11=Leona
TTITLE12=Blues Plus Booze (Means I Lose)
TTITLE13=Life to Go
EXTD=
EXTT0=
EXTT1=
EXTT2=
EXTT3=
EXTT4=
EXTT5=
EXTT6=
EXTT7=
EXTT8=
EXTT9=
EXTT10=
EXTT11=
EXTT12=
EXTT13=
PLAYORDER=
